<svg width="65" height="65" viewBox="0 0 65 65" fill="none" xmlns="http://www.w3.org/2000/svg">
<path d="M32.5 59.5833C36.0573 59.5879 39.5804 58.8895 42.8669 57.5281C46.1535 56.1668 49.1385 54.1693 51.6506 51.6506C54.1693 49.1385 56.1668 46.1535 57.5281 42.8669C58.8895 39.5804 59.5879 36.0573 59.5833 32.5C59.5878 28.9427 58.8894 25.4196 57.528 22.1331C56.1667 18.8466 54.1693 15.8615 51.6506 13.3494C49.1385 10.8306 46.1535 8.83321 42.8669 7.47185C39.5804 6.11049 36.0573 5.41204 32.5 5.41665C28.9427 5.41211 25.4196 6.11059 22.1331 7.47195C18.8466 8.83331 15.8615 10.8307 13.3494 13.3494C10.8307 15.8615 8.83331 18.8466 7.47195 22.1331C6.11059 25.4196 5.41211 28.9427 5.41665 32.5C5.41204 36.0573 6.11049 39.5804 7.47185 42.8669C8.83321 46.1535 10.8306 49.1385 13.3494 51.6506C15.8615 54.1693 18.8466 56.1667 22.1331 57.528C25.4196 58.8894 28.9427 59.5878 32.5 59.5833Z" stroke="#FF0032" stroke-width="4" stroke-linejoin="round"/>
<path d="M21.6666 32.5L29.7916 40.625L46.0416 24.375" stroke="#FF0032" stroke-width="4" stroke-linecap="round" stroke-linejoin="round"/>
</svg>
