<svg width="65" height="65" viewBox="0 0 65 65" fill="none" xmlns="http://www.w3.org/2000/svg">
<path d="M32.5 59.5833C36.0573 59.5879 39.5805 58.8895 42.867 57.5281C46.1535 56.1668 49.1386 54.1693 51.6506 51.6506C54.1693 49.1385 56.1668 46.1535 57.5281 42.8669C58.8895 39.5804 59.588 36.0573 59.5833 32.5C59.5879 28.9427 58.8894 25.4196 57.528 22.1331C56.1667 18.8466 54.1693 15.8615 51.6506 13.3494C49.1386 10.8306 46.1535 8.83321 42.867 7.47185C39.5805 6.11049 36.0573 5.41204 32.5 5.41665C28.9427 5.41211 25.4196 6.11059 22.1331 7.47195C18.8466 8.83331 15.8615 10.8307 13.3494 13.3494C10.8307 15.8615 8.83334 18.8466 7.47198 22.1331C6.11062 25.4196 5.41214 28.9427 5.41668 32.5C5.41207 36.0573 6.11052 39.5804 7.47188 42.8669C8.83324 46.1535 10.8307 49.1385 13.3494 51.6506C15.8615 54.1693 18.8466 56.1667 22.1331 57.528C25.4196 58.8894 28.9427 59.5878 32.5 59.5833Z" stroke="white" stroke-width="4" stroke-linejoin="round"/>
<path d="M21.6667 32.5L29.7917 40.625L46.0417 24.375" stroke="white" stroke-width="4" stroke-linecap="round" stroke-linejoin="round"/>
</svg>
