<svg width="197" height="64" viewBox="0 0 197 64" fill="none" xmlns="http://www.w3.org/2000/svg">
<mask id="mask0_89_296" style="mask-type:luminance" maskUnits="userSpaceOnUse" x="0" y="0" width="64" height="64">
<path d="M63.9166 0H0.195801V63.7208H63.9166V0Z" fill="white"/>
</mask>
<g mask="url(#mask0_89_296)">
<path d="M63.9135 0H0.195801V63.7177H63.9135V0Z" fill="#FF0033"/>
<path d="M19.5817 4.90027L14.89 14.6248L10.2077 4.90027H5.10229V19.6039H8.68583V9.08054L13.2639 17.9715H16.5318L21.113 9.08054V19.6039H24.6966V4.90027H19.5817Z" fill="white"/>
<path d="M42.6459 4.90027V7.82709H49.0489V19.6007H52.6198V7.82709H59.026V4.90027H42.6459Z" fill="white"/>
<path d="M55.4457 53.9143C55.3797 54.4564 55.1328 54.9604 54.7447 55.3446C54.3399 55.7133 53.8421 55.9643 53.305 56.0708C52.5241 56.2236 51.7295 56.2945 50.9339 56.2823C50.0862 56.2963 49.2419 56.1737 48.4333 55.9192C47.7723 55.7038 47.2022 55.2737 46.8136 54.6973C46.4252 54.1195 46.2295 53.2828 46.2295 52.2125V50.7096C46.2295 49.6393 46.4252 48.8152 46.8136 48.228C47.2009 47.6516 47.77 47.2215 48.4301 47.0061C49.238 46.7482 50.0828 46.6244 50.9307 46.6399C51.7275 46.6268 52.5235 46.6987 53.305 46.8546C53.8407 46.9606 54.3373 47.2106 54.7416 47.5776C55.1294 47.9636 55.3772 48.4681 55.4457 49.011H59.0324C58.9647 47.8799 58.5327 46.801 57.801 45.9358C57.0791 45.1412 56.1444 44.5703 55.1078 44.2908C53.7453 43.9319 52.3395 43.764 50.9307 43.792C49.4242 43.7574 47.9246 44.007 46.5105 44.5276C45.3037 44.9926 44.2929 45.8574 43.6468 46.9777C43.0153 48.0638 42.6807 49.5035 42.6586 51.2906V51.6316C42.6807 53.4091 43.0153 54.8552 43.6468 55.9413C44.2928 57.0624 45.3035 57.9283 46.5105 58.3945C47.925 58.9136 49.4243 59.1632 50.9307 59.1302C52.34 59.1643 53.7468 58.9952 55.1078 58.6282C56.1455 58.3511 57.0808 57.7799 57.801 56.9832C58.5333 56.1196 58.9654 55.0415 59.0324 53.9111H55.4457V53.9143Z" fill="white"/>
</g>
<path d="M79.1408 24.7377C79.7458 24.7686 80.3456 24.612 80.8583 24.2893C81.3318 23.9294 81.6771 23.4269 81.8434 22.8559C82.1072 22.0225 82.2631 21.1588 82.3075 20.2859C82.3875 19.2334 82.4275 17.9589 82.4275 16.4624V7.79871H100.355V28.4128H96.1713V11.1928H86.311V16.4497C86.3289 18.3162 86.2393 20.1821 86.0426 22.0382C85.9278 23.3148 85.5946 24.5621 85.0575 25.7259C84.6379 26.6126 83.9331 27.3329 83.0558 27.7719C82.0113 28.2293 80.877 28.4452 79.7375 28.4033H78.5125V24.7377H79.1408Z" fill="#FF0033"/>
<path d="M122.702 7.79871V11.0539H109.198V16.314H119.595V19.4492H109.198V25.1576H122.819V28.4128H105.015V7.79871H122.702Z" fill="#FF0033"/>
<path d="M124.868 11.1928V7.79871H145.918V11.1928H137.491V28.4002H133.289V11.1928H124.868Z" fill="#FF0033"/>
<path d="M146.679 18.0156C146.633 16.3325 146.902 14.6557 147.471 13.0712C147.949 11.7961 148.752 10.6684 149.801 9.80026C150.923 8.9167 152.23 8.29823 153.625 7.99111C157.101 7.25443 160.694 7.25443 164.17 7.99111C165.566 8.29861 166.874 8.91702 167.997 9.80026C169.044 10.6701 169.847 11.7973 170.327 13.0712C170.894 14.6563 171.161 16.3328 171.116 18.0156C171.163 19.7283 170.895 21.4351 170.327 23.0515C169.85 24.3395 169.047 25.4818 167.997 26.3667C166.876 27.2591 165.568 27.8872 164.17 28.2042C160.696 28.962 157.099 28.962 153.625 28.2042C152.228 27.8872 150.921 27.2591 149.801 26.3667C148.749 25.4832 147.946 24.3405 147.471 23.0515C146.9 21.4357 146.632 19.7286 146.679 18.0156ZM166.904 16.9989C166.904 14.7299 166.232 13.1123 164.887 12.1461C163.542 11.18 161.542 10.6969 158.888 10.6969C156.221 10.6969 154.221 11.18 152.889 12.1461C151.557 13.1123 150.889 14.7299 150.887 16.9989V19.1206C150.861 20.124 151.028 21.1232 151.38 22.0632C151.689 22.8447 152.205 23.527 152.873 24.0366C153.628 24.5828 154.488 24.9646 155.399 25.1574C156.552 25.4102 157.73 25.5299 158.91 25.5142C161.56 25.5142 163.56 25.0269 164.909 24.0523C166.258 23.0778 166.931 21.4339 166.926 19.1206L166.904 16.9989Z" fill="#FF0033"/>
<path d="M91.723 34.1465C93.7142 34.1465 95.2434 34.559 96.3105 35.3841C97.3777 36.2093 97.9102 37.4722 97.9081 39.1729C97.9271 40.2008 97.6639 41.2142 97.1472 42.1029C96.64 42.9596 95.778 43.5774 94.5614 43.9562C95.9148 44.293 96.9115 44.875 97.5514 45.7022C98.2128 46.6184 98.5465 47.7306 98.4986 48.8595C98.4986 50.7918 97.9565 52.2652 96.8725 53.2798C95.7885 54.2943 94.1625 54.789 91.9945 54.7637H78.7875V34.1465H91.723ZM93.6647 39.435C93.6647 37.7995 92.6596 36.9828 90.6495 36.9849H82.9109V42.8701H90.6653C91.6777 42.8701 92.4344 42.6354 92.9354 42.166C93.1945 41.9017 93.3948 41.5856 93.5232 41.2385C93.6516 40.8914 93.7052 40.521 93.6805 40.1517L93.6647 39.435ZM94.2962 48.247C94.3155 47.8785 94.2502 47.5104 94.1051 47.1711C93.9601 46.8318 93.7392 46.5302 93.4595 46.2895C92.9038 45.8222 92.0545 45.5886 90.9336 45.5886H82.9109V51.9221H90.9179C93.168 51.9221 94.293 51.0055 94.293 49.1721L94.2962 48.247Z" fill="#FF0033"/>
<path d="M129.608 34.1465L120.028 44.0636L130.176 54.7637H124.808L116.353 45.9485H113.426V54.7637H109.23V34.1465H113.414V42.5418H116.492L124.647 34.1465H129.608Z" fill="#FF0033"/>
<path d="M134.867 34.1462L142.097 45.5883L148.759 34.1462H152.864L140.866 54.7634H136.762L139.919 49.295L130.27 34.1399L134.867 34.1462Z" fill="#FF0033"/>
<path d="M173.674 34.1465V37.3732H159.393V42.3334H168.297C170.646 42.3334 172.363 42.8659 173.449 43.931C174.535 44.9961 175.078 46.5042 175.078 48.4554C175.078 50.4298 174.531 51.9737 173.437 53.0872C172.342 54.2007 170.629 54.7584 168.297 54.7606H155.27V34.1465H173.674ZM170.832 48.0986C170.849 47.7256 170.787 47.3532 170.65 47.0057C170.514 46.6581 170.306 46.3431 170.039 46.0811C169.511 45.5738 168.63 45.3202 167.397 45.3202H159.39V51.6822H167.387C168.603 51.6822 169.477 51.4359 170.017 50.9371C170.287 50.6804 170.498 50.3689 170.637 50.0236C170.776 49.6783 170.839 49.3071 170.822 48.9353L170.832 48.0986Z" fill="#FF0033"/>
<path d="M196.17 34.1465V37.3985H182.666V42.6586H193.063V45.7938H182.666V51.5022H196.29V54.7637H178.486V34.1465H196.17Z" fill="#FF0033"/>
</svg>
