<svg width="183" height="17" viewBox="0 0 183 17" fill="none" xmlns="http://www.w3.org/2000/svg">
<path d="M19.7455 15.0494C19.837 15.054 19.9278 15.0318 20.0069 14.9857C20.0806 14.9337 20.136 14.8596 20.165 14.7742C20.2051 14.6579 20.2282 14.5364 20.2335 14.4136C20.2467 14.2629 20.2533 14.0826 20.2533 13.8726V12.4639H23.4345V15.8554H22.5174V13.2061H21.1122V13.8672C21.1157 14.1778 21.0976 14.4883 21.0581 14.7964C21.0368 15.0115 20.9731 15.2203 20.8706 15.4106C20.7885 15.5617 20.6584 15.6812 20.501 15.7502C20.3076 15.8251 20.1011 15.8601 19.8939 15.853H19.6277V15.0494H19.7455Z" fill="#FF0032"/>
<path d="M27.1889 12.4639V13.1665H25.0036V13.7861H26.666V14.4592H25.0036V15.1528H27.2033V15.8554H24.0864V12.4639H27.1889Z" fill="#FF0032"/>
<path d="M27.4504 13.2061V12.4639H31.1244V13.2061H29.7439V15.8554H28.8268V13.2061H27.4504Z" fill="#FF0032"/>
<path d="M31.2232 14.1402C31.2152 13.8586 31.2622 13.5781 31.3614 13.3144C31.4449 13.0996 31.5866 12.9123 31.7707 12.7735C31.9699 12.6313 32.1968 12.5326 32.4366 12.4838C33.0356 12.3652 33.6521 12.3652 34.2511 12.4838C34.4909 12.5326 34.7178 12.6313 34.917 12.7735C35.1011 12.9123 35.2428 13.0996 35.3263 13.3144C35.4256 13.5781 35.4725 13.8586 35.4645 14.1402C35.4726 14.4299 35.4257 14.7185 35.3263 14.9907C35.2412 15.2073 35.1 15.3973 34.917 15.5412C34.719 15.6865 34.4918 15.7869 34.2511 15.8357C33.6521 15.9543 33.0356 15.9543 32.4366 15.8357C32.1959 15.7869 31.9687 15.6865 31.7707 15.5412C31.5878 15.3973 31.4465 15.2073 31.3614 14.9907C31.262 14.7185 31.2151 14.4299 31.2232 14.1402ZM34.5324 13.9732C34.5324 13.6486 34.4322 13.4224 34.2319 13.2946C34.0315 13.1668 33.7358 13.1029 33.3448 13.1029C32.9497 13.1029 32.652 13.1668 32.4517 13.2946C32.2513 13.4224 32.1511 13.6486 32.1511 13.9732V14.3338C32.1468 14.4797 32.1719 14.6251 32.2251 14.7611C32.275 14.8699 32.3532 14.9633 32.4517 15.0315C32.5634 15.1062 32.6895 15.1565 32.8219 15.1794C32.9948 15.207 33.1697 15.2201 33.3448 15.2185C33.518 15.2202 33.6912 15.2072 33.8622 15.1794C33.9937 15.1565 34.1193 15.1079 34.2319 15.0364C34.332 14.9702 34.4109 14.8765 34.459 14.7665C34.5125 14.6287 34.5376 14.4815 34.533 14.3338L34.5324 13.9732Z" fill="#FF0032"/>
<path d="M10.353 15.8374H3.56028L0.81665 0.941284H7.60871L10.353 15.8374Z" fill="#FF0032"/>
<path d="M11.7249 8.38904L10.3522 15.8374H17.1448L18.5176 8.38904H11.7249Z" fill="#FF0032"/>
<path d="M20.7283 9.15772V11.7703H19.8923V8.38782H21.3336L22.175 10.9127L23.0206 8.38782H24.4126V11.7703H23.4978V9.1475L22.6125 11.7703H21.6142L20.7283 9.15772Z" fill="#FF0032"/>
<path d="M24.6472 9.12767V8.38782H28.3116V9.12767H26.9347V11.7703H26.0193V9.12767H24.6472Z" fill="#FF0032"/>
<path d="M30.2617 8.3186C31.3892 8.3186 32.0647 8.64255 32.1603 9.5597H31.242C31.1644 9.12817 30.8321 9.0248 30.2611 9.0248C29.6505 9.0248 29.2207 9.18226 29.2207 9.88785V10.2749C29.2207 10.9613 29.636 11.1332 30.2653 11.1332C30.8062 11.1332 31.1494 11.0346 31.2468 10.6331H32.1645C32.0569 11.5058 31.3832 11.8393 30.2611 11.8393C29.0308 11.8393 28.3036 11.412 28.3036 10.0838C28.3036 8.75554 29.0308 8.3186 30.2611 8.3186" fill="#FF0032"/>
<path d="M20.7221 9.15769V11.7775H19.8837V8.38599H21.3285L22.1717 10.9175L23.0204 8.38599H24.4153V11.7775H23.4982V9.14807L22.6105 11.7775H21.6098L20.7221 9.15769Z" fill="#FF0032"/>
<path d="M24.6555 9.12824V8.38599H28.3295V9.12824H26.9484V11.7775H26.0312V9.12824H24.6555Z" fill="#FF0032"/>
<path d="M28.2801 10.0868C28.2724 9.80408 28.3174 9.52241 28.4129 9.25619C28.4925 9.0432 28.6268 8.85497 28.8023 8.71047C28.9838 8.56417 29.1964 8.46137 29.4238 8.40996C29.6967 8.34403 29.9767 8.31253 30.2574 8.31621C30.5137 8.31372 30.7696 8.33525 31.0219 8.38052C31.2271 8.41515 31.4242 8.48684 31.6037 8.59207C31.7643 8.68644 31.8983 8.82003 31.9931 8.98033C32.0974 9.15704 32.1592 9.35561 32.1734 9.56031H31.2461C31.2313 9.4645 31.1943 9.3735 31.1379 9.29466C31.0857 9.22386 31.0158 9.16792 30.9353 9.13238C30.8427 9.08682 30.7425 9.05852 30.6397 9.04884C30.5122 9.03149 30.3836 9.02326 30.255 9.0242C30.1126 9.02302 29.9704 9.03632 29.8307 9.06387C29.7108 9.08369 29.5965 9.12875 29.4953 9.19609C29.4008 9.26187 29.3258 9.352 29.2784 9.45693C29.2243 9.59457 29.1991 9.74187 29.2044 9.88966V10.2779C29.1995 10.4241 29.2246 10.5698 29.2784 10.7058C29.3277 10.8094 29.4023 10.8989 29.4953 10.9661C29.5947 11.0344 29.7073 11.0813 29.8259 11.1037C29.9693 11.1275 30.1144 11.139 30.2598 11.138C30.3835 11.1386 30.5071 11.1322 30.63 11.1187C30.73 11.1052 30.8278 11.0788 30.9209 11.04C31.0003 11.0051 31.0709 10.9529 31.1277 10.8873C31.1864 10.8141 31.2275 10.7284 31.2479 10.6367H32.1752C32.1559 10.8352 32.0918 11.0268 31.9877 11.1969C31.8866 11.3499 31.7517 11.4778 31.5935 11.5707C31.4129 11.6725 31.2161 11.7423 31.0117 11.7768C30.7614 11.8255 30.5069 11.8487 30.252 11.846C29.9716 11.8495 29.6918 11.8198 29.4184 11.7576C29.1927 11.7068 28.9807 11.6078 28.7969 11.4673C28.6222 11.3241 28.4879 11.1376 28.4075 10.9264C28.3114 10.6566 28.2663 10.3713 28.2747 10.085" fill="#FF0032"/>
<path d="M34.3485 8.38599V11.0359H36.3259V11.7775H33.4314V8.38599H34.3485Z" fill="#FF0032"/>
<path d="M37.4887 8.38599H36.5715V11.7775H37.4887V8.38599Z" fill="#FF0032"/>
<path d="M41.8052 8.38599L40.3501 11.7775H39.1072L37.6624 8.38599H38.6438L39.7881 11.1092L40.9469 8.38599H41.8052Z" fill="#FF0032"/>
<path d="M45.0729 8.38599V9.08917H42.8882V9.70822H44.5506V10.382H42.8882V11.0749H45.0879V11.7775H41.9711V8.38599H45.0729Z" fill="#FF0032"/>
<path d="M97.4985 1.72899C97.5986 1.72851 97.6977 1.7478 97.7902 1.78574C97.8827 1.82368 97.9669 1.87954 98.0377 1.95009C98.1086 2.02065 98.1649 2.10451 98.2032 2.19687C98.2416 2.28923 98.2614 2.38826 98.2613 2.48827V3.85772C98.2613 5.84805 98.8361 7.40564 99.9715 8.42738C100.976 9.34635 102.388 9.84657 104.052 9.84657C109.09 9.84657 109.842 6.10357 109.842 3.87195V2.48827C109.842 2.28596 109.922 2.09194 110.065 1.94888C110.208 1.80583 110.402 1.72546 110.605 1.72546C110.807 1.72546 111.001 1.80583 111.144 1.94888C111.287 2.09194 111.368 2.28596 111.368 2.48827V3.85772C111.368 6.52925 110.537 8.5445 108.905 9.84305C107.334 11.0955 105.396 11.358 104.052 11.358C102.001 11.358 100.234 10.7336 98.9428 9.5486C97.5022 8.22889 96.7394 6.25961 96.7394 3.87195V2.48827C96.7394 2.38857 96.759 2.28983 96.7971 2.19772C96.8353 2.1056 96.8912 2.02189 96.9617 1.95139C97.0322 1.88088 97.1159 1.82495 97.208 1.78679C97.3001 1.74863 97.3988 1.72899 97.4985 1.72899Z" fill="#069FB5"/>
<path d="M106.092 3.24743H102.011C101.934 3.24789 101.858 3.26551 101.788 3.29902C101.719 3.33253 101.657 3.38109 101.609 3.4412C101.56 3.5013 101.526 3.57144 101.507 3.64655C101.489 3.72166 101.488 3.79985 101.504 3.87548C101.766 5.17402 102.611 5.80548 104.062 5.80548C105.038 5.80548 106.286 5.58559 106.62 3.87548C106.635 3.7982 106.632 3.71862 106.612 3.64251C106.592 3.56641 106.556 3.49571 106.505 3.43555C106.454 3.37539 106.391 3.32729 106.319 3.29475C106.247 3.26221 106.169 3.24604 106.091 3.24743M101.057 1.72546H107.046C107.357 1.72546 107.656 1.84919 107.876 2.06943C108.097 2.28967 108.22 2.58837 108.22 2.89983C108.22 5.71329 106.702 7.33109 104.051 7.33109C101.401 7.33109 99.8827 5.71329 99.8827 2.89983C99.8827 2.58837 100.006 2.28967 100.227 2.06943C100.447 1.84919 100.746 1.72546 101.057 1.72546Z" fill="#F07E33"/>
<path d="M104.051 9.8324C106.702 9.8324 108.22 11.4468 108.22 14.2638V14.3489C108.22 14.4421 108.202 14.5344 108.166 14.6205C108.131 14.7065 108.078 14.7848 108.012 14.8507C107.947 14.9166 107.868 14.9688 107.782 15.0045C107.696 15.0401 107.604 15.0585 107.511 15.0584C107.297 15.0584 107.092 14.9736 106.941 14.8226C106.79 14.6715 106.705 14.4667 106.705 14.2531C106.705 11.6489 105.194 11.3474 104.059 11.3474C102.285 11.3474 101.415 12.2983 101.415 14.2531V14.3383C101.415 14.4315 101.397 14.5238 101.361 14.6099C101.326 14.696 101.273 14.7742 101.208 14.8401C101.142 14.906 101.063 14.9582 100.977 14.9939C100.891 15.0295 100.799 15.0479 100.706 15.0479C100.493 15.0526 100.287 14.9728 100.132 14.8258C99.978 14.6789 99.8883 14.4768 99.8827 14.2638C99.8827 11.4468 101.401 9.8324 104.051 9.8324Z" fill="#069FB5"/>
<path d="M126.548 4.48575L125.37 2.44333C125.33 2.37471 125.309 2.29688 125.31 2.21766C125.31 2.13845 125.331 2.06066 125.37 1.99213C125.41 1.9236 125.467 1.86675 125.536 1.82732C125.605 1.7879 125.682 1.76727 125.762 1.76754H125.776C125.856 1.76746 125.934 1.78825 126.002 1.82782C126.071 1.86738 126.128 1.92433 126.168 1.99296L127.05 3.52833C127.069 3.5614 127.096 3.5889 127.129 3.60803C127.162 3.62715 127.199 3.63723 127.237 3.63723C127.275 3.63723 127.313 3.62715 127.346 3.60803C127.379 3.5889 127.406 3.5614 127.425 3.52833L128.338 1.98555C128.4 1.88293 128.499 1.80889 128.615 1.77973C128.731 1.75057 128.854 1.76866 128.956 1.83004C129.059 1.89141 129.133 1.99104 129.162 2.107C129.191 2.22297 129.173 2.34576 129.112 2.44838L127.887 4.48575C127.846 4.55557 127.825 4.63502 127.825 4.71593C127.825 4.79684 127.846 4.87629 127.887 4.94611L129.219 7.25275C129.259 7.32119 129.28 7.3988 129.28 7.4778C129.28 7.5568 129.259 7.63443 129.219 7.70288C129.18 7.77134 129.123 7.82822 129.055 7.86783C128.987 7.90744 128.909 7.92837 128.83 7.92854H128.815C128.736 7.92856 128.658 7.9075 128.589 7.86752C128.52 7.82753 128.463 7.77004 128.423 7.70089L127.38 5.86907C127.362 5.83859 127.337 5.81333 127.306 5.79577C127.275 5.77822 127.241 5.76899 127.205 5.76899C127.17 5.76899 127.135 5.77822 127.104 5.79577C127.074 5.81333 127.048 5.83859 127.03 5.86907L125.938 7.71135C125.908 7.76217 125.868 7.8065 125.82 7.84181C125.772 7.87713 125.718 7.90273 125.661 7.91717C125.604 7.93162 125.544 7.93461 125.485 7.92597C125.427 7.91734 125.37 7.89726 125.32 7.86687C125.269 7.83648 125.225 7.79638 125.189 7.74885C125.154 7.70133 125.128 7.64732 125.114 7.5899C125.099 7.53248 125.096 7.47278 125.105 7.41421C125.114 7.35563 125.134 7.29933 125.164 7.24852L126.553 4.94611C126.594 4.87629 126.615 4.79684 126.615 4.71593C126.615 4.63502 126.594 4.55557 126.553 4.48575" fill="#069FB5"/>
<path d="M115.341 6.62369C115.341 6.72873 115.383 6.82923 115.458 6.90348C115.532 6.97772 115.633 7.01973 115.738 7.02044C116.318 7.06139 116.896 6.90238 117.373 6.56984C117.633 6.35935 117.841 6.09148 117.98 5.78725C118.119 5.48302 118.185 5.15072 118.174 4.81645C118.186 4.47855 118.12 4.14245 117.981 3.83417C117.842 3.52588 117.634 3.25368 117.373 3.03861C116.837 2.63211 116.193 2.608 115.727 2.608C115.623 2.60803 115.522 2.6495 115.448 2.72336C115.373 2.79723 115.331 2.89749 115.331 3.00228L115.341 6.62369ZM115.683 1.72608C116.572 1.72608 117.278 1.80439 117.973 2.32578C118.354 2.61699 118.661 2.99463 118.868 3.42761C119.075 3.86059 119.176 4.33653 119.163 4.81622C119.176 5.29914 119.069 5.7777 118.852 6.20953C118.636 6.64136 118.316 7.01314 117.921 7.29196C117.206 7.78172 116.531 7.88214 115.666 7.88214H114.784C114.732 7.88214 114.681 7.87186 114.633 7.85189C114.585 7.83192 114.541 7.80266 114.505 7.76578C114.468 7.7289 114.439 7.68515 114.419 7.63703C114.4 7.5889 114.39 7.53737 114.39 7.48539V2.12282C114.39 2.07077 114.4 2.01915 114.419 1.97097C114.439 1.92279 114.468 1.87899 114.505 1.8421C114.542 1.80521 114.585 1.77597 114.633 1.75605C114.681 1.73614 114.733 1.72595 114.785 1.72608H115.683Z" fill="#069FB5"/>
<path d="M120.827 6.62369C120.827 6.72848 120.869 6.82902 120.942 6.90336C121.016 6.9777 121.117 7.01979 121.221 7.02044C121.802 7.06526 122.38 6.90965 122.86 6.5796C123.12 6.36954 123.328 6.10181 123.468 5.79752C123.607 5.49324 123.674 5.16073 123.663 4.82621C123.675 4.48904 123.609 4.15363 123.472 3.84553C123.334 3.53744 123.128 3.2648 122.869 3.04837C122.383 2.7263 121.803 2.57472 121.221 2.61741C121.117 2.61744 121.017 2.65899 120.943 2.73293C120.869 2.80687 120.827 2.90714 120.827 3.01169V6.62369ZM121.17 1.72608C122.059 1.72608 122.764 1.80439 123.46 2.32578C123.84 2.61747 124.146 2.99526 124.353 3.42818C124.559 3.86109 124.66 4.33678 124.647 4.81622C124.66 5.29922 124.553 5.77786 124.336 6.20973C124.12 6.64161 123.8 7.01341 123.405 7.29219C122.693 7.78195 122.014 7.88237 121.152 7.88237H120.27C120.218 7.88239 120.167 7.87214 120.119 7.8522C120.07 7.83227 120.027 7.80304 119.99 7.7662C119.953 7.72935 119.924 7.68561 119.904 7.63747C119.884 7.58932 119.874 7.53773 119.874 7.48563V2.12282C119.874 2.07066 119.884 2.019 119.904 1.97081C119.924 1.92262 119.953 1.87885 119.99 1.842C120.027 1.80514 120.071 1.77593 120.119 1.75604C120.167 1.73615 120.219 1.72597 120.271 1.72608H121.17Z" fill="#069FB5"/>
<path d="M116.974 9.7684H115.75C115.636 9.76846 115.526 9.81388 115.445 9.89469C115.364 9.9755 115.319 10.0851 115.319 10.1994V10.7846C115.319 10.8411 115.33 10.897 115.352 10.9492C115.373 11.0013 115.405 11.0487 115.445 11.0885C115.485 11.1283 115.533 11.1598 115.585 11.1812C115.637 11.2026 115.693 11.2135 115.75 11.2132H116.901C116.957 11.2132 117.013 11.2244 117.066 11.246C117.118 11.2677 117.166 11.2994 117.206 11.3394C117.246 11.3795 117.277 11.427 117.299 11.4793C117.321 11.5316 117.332 11.5876 117.332 11.6442C117.332 11.7008 117.321 11.7568 117.299 11.8091C117.277 11.8614 117.246 11.9089 117.206 11.9489C117.166 11.9889 117.118 12.0207 117.066 12.0424C117.013 12.064 116.957 12.0752 116.901 12.0752H115.75C115.693 12.0749 115.637 12.0857 115.585 12.1071C115.533 12.1285 115.485 12.1601 115.445 12.1999C115.405 12.2397 115.373 12.2871 115.352 12.3392C115.33 12.3914 115.319 12.4473 115.319 12.5038V14.4995C115.319 14.6134 115.274 14.7226 115.194 14.8034C115.113 14.8841 115.004 14.9298 114.89 14.9305H114.82C114.763 14.9305 114.707 14.9193 114.655 14.8977C114.603 14.876 114.556 14.8442 114.516 14.8041C114.476 14.7641 114.445 14.7165 114.423 14.6643C114.402 14.612 114.391 14.556 114.391 14.4995V9.33731C114.391 9.28104 114.402 9.22531 114.424 9.17331C114.445 9.12132 114.477 9.07408 114.517 9.03428C114.557 8.99449 114.604 8.96293 114.656 8.9414C114.708 8.91987 114.764 8.9088 114.82 8.90881H116.972C117.081 8.91703 117.182 8.96587 117.256 9.04556C117.33 9.12524 117.371 9.22989 117.371 9.33855C117.371 9.4472 117.33 9.55185 117.256 9.63153C117.182 9.71122 117.081 9.76006 116.972 9.76828" fill="#F07E33"/>
<path d="M119.047 9.33744V14.4996C119.047 14.5562 119.036 14.6123 119.014 14.6646C118.992 14.7169 118.961 14.7644 118.921 14.8044C118.881 14.8445 118.833 14.8762 118.781 14.8979C118.729 14.9195 118.672 14.9306 118.616 14.9306H118.547C118.491 14.9306 118.435 14.9195 118.382 14.8979C118.33 14.8762 118.283 14.8445 118.242 14.8044C118.202 14.7644 118.171 14.7169 118.149 14.6646C118.127 14.6123 118.116 14.5562 118.116 14.4996V9.33744C118.116 9.28096 118.127 9.22503 118.149 9.17287C118.171 9.12071 118.203 9.07336 118.243 9.03354C118.283 8.99371 118.33 8.9622 118.383 8.94082C118.435 8.91943 118.491 8.9086 118.547 8.90894H118.616C118.672 8.9086 118.728 8.91943 118.781 8.94082C118.833 8.9622 118.88 8.99371 118.92 9.03354C118.961 9.07336 118.992 9.12071 119.014 9.17287C119.036 9.22503 119.047 9.28096 119.047 9.33744Z" fill="#F07E33"/>
<path d="M121.895 10.1994V14.4995C121.895 14.556 121.885 14.612 121.863 14.6643C121.842 14.7166 121.81 14.7641 121.77 14.8042C121.731 14.8442 121.683 14.876 121.631 14.8977C121.579 14.9194 121.523 14.9305 121.467 14.9305H121.396C121.339 14.9305 121.284 14.9193 121.231 14.8977C121.179 14.876 121.132 14.8442 121.092 14.8041C121.052 14.764 121.021 14.7165 120.999 14.6642C120.978 14.612 120.967 14.556 120.967 14.4995V10.1994C120.967 10.1427 120.956 10.0866 120.935 10.0343C120.913 9.98191 120.881 9.93437 120.841 9.89434C120.801 9.85431 120.753 9.82258 120.701 9.80097C120.648 9.77936 120.592 9.76829 120.536 9.7684H120.019C119.911 9.76018 119.809 9.71134 119.736 9.63166C119.662 9.55197 119.621 9.44732 119.621 9.33867C119.621 9.23001 119.662 9.12536 119.736 9.04568C119.809 8.966 119.911 8.91715 120.019 8.90894H122.843C122.951 8.91715 123.052 8.966 123.126 9.04568C123.2 9.12536 123.241 9.23001 123.241 9.33867C123.241 9.44732 123.2 9.55197 123.126 9.63166C123.052 9.71134 122.951 9.76018 122.843 9.7684H122.326C122.212 9.7684 122.102 9.81381 122.021 9.89463C121.941 9.97545 121.895 10.0851 121.895 10.1994Z" fill="#F07E33"/>
<path d="M123.798 14.4995V9.58426C123.799 9.49937 123.825 9.4166 123.873 9.34646C123.921 9.27632 123.988 9.22197 124.067 9.19029C124.146 9.15861 124.232 9.15103 124.315 9.16852C124.398 9.18601 124.474 9.22778 124.534 9.28852L127.406 12.2957C127.465 12.3562 127.542 12.3978 127.625 12.4152C127.708 12.4325 127.794 12.4249 127.873 12.3931C127.951 12.3614 128.019 12.307 128.066 12.2369C128.114 12.1668 128.14 12.0841 128.141 11.9993V9.33744C128.141 9.28096 128.152 9.22503 128.174 9.17287C128.195 9.12071 128.227 9.07336 128.267 9.03354C128.307 8.99371 128.355 8.9622 128.407 8.94082C128.459 8.91943 128.515 8.9086 128.572 8.90894H128.64C128.697 8.9086 128.753 8.91943 128.805 8.94082C128.857 8.9622 128.905 8.99371 128.945 9.03354C128.985 9.07336 129.017 9.12071 129.038 9.17287C129.06 9.22503 129.071 9.28096 129.071 9.33744V14.2174C129.069 14.3017 129.043 14.3836 128.995 14.453C128.947 14.5223 128.88 14.5761 128.802 14.6077C128.723 14.6392 128.638 14.6471 128.555 14.6304C128.472 14.6137 128.397 14.5732 128.337 14.5137L125.469 11.5071C125.409 11.4475 125.332 11.4068 125.25 11.3902C125.167 11.3735 125.081 11.3816 125.002 11.4135C124.924 11.4453 124.857 11.4995 124.809 11.5693C124.761 11.6391 124.735 11.7213 124.734 11.8059V14.4995C124.734 14.556 124.723 14.612 124.702 14.6643C124.68 14.7166 124.649 14.7641 124.609 14.8041C124.569 14.8442 124.522 14.876 124.47 14.8977C124.418 14.9193 124.362 14.9305 124.305 14.9305H124.237C124.18 14.9305 124.124 14.9194 124.072 14.8977C124.019 14.8761 123.972 14.8444 123.932 14.8043C123.892 14.7643 123.86 14.7168 123.838 14.6645C123.817 14.6122 123.806 14.5561 123.806 14.4995" fill="#F07E33"/>
<path d="M132.832 9.76847H131.302C131.245 9.76845 131.189 9.77959 131.137 9.80124C131.085 9.82289 131.037 9.85463 130.997 9.89465C130.957 9.93467 130.925 9.98219 130.904 10.0345C130.882 10.0868 130.871 10.1428 130.871 10.1994V10.7847C130.871 10.8412 130.882 10.8971 130.904 10.9492C130.925 11.0014 130.957 11.0487 130.997 11.0886C131.037 11.1284 131.085 11.1599 131.137 11.1813C131.189 11.2027 131.245 11.2136 131.302 11.2133H132.772C132.886 11.2133 132.996 11.2587 133.076 11.3395C133.157 11.4203 133.203 11.53 133.203 11.6443C133.203 11.7586 133.157 11.8682 133.076 11.949C132.996 12.0298 132.886 12.0752 132.772 12.0752H131.302C131.245 12.0749 131.189 12.0858 131.137 12.1072C131.085 12.1286 131.037 12.1601 130.997 12.1999C130.957 12.2397 130.925 12.287 130.904 12.3392C130.882 12.3913 130.871 12.4472 130.871 12.5037V13.64C130.871 13.6965 130.882 13.7524 130.904 13.8046C130.925 13.8567 130.957 13.9041 130.997 13.9439C131.037 13.9837 131.085 14.0152 131.137 14.0366C131.189 14.058 131.245 14.0688 131.302 14.0685H132.832C132.945 14.0704 133.053 14.1166 133.132 14.1972C133.212 14.2779 133.256 14.3864 133.256 14.4995C133.256 14.6126 133.212 14.7212 133.132 14.8018C133.053 14.8824 132.945 14.9287 132.832 14.9305H130.383C130.327 14.9306 130.271 14.9194 130.219 14.8977C130.167 14.876 130.119 14.8443 130.08 14.8042C130.04 14.7642 130.008 14.7166 129.987 14.6643C129.965 14.6121 129.955 14.5561 129.955 14.4996V9.33738C129.955 9.22373 130 9.11473 130.08 9.03435C130.161 8.95397 130.27 8.9088 130.383 8.90877H132.832C132.891 8.90439 132.951 8.91226 133.007 8.93187C133.063 8.95149 133.114 8.98243 133.157 9.02277C133.201 9.06311 133.235 9.11197 133.259 9.16631C133.283 9.22065 133.295 9.27928 133.295 9.33856C133.295 9.39784 133.283 9.45647 133.259 9.51081C133.235 9.56515 133.201 9.61401 133.157 9.65435C133.114 9.69468 133.063 9.72563 133.007 9.74525C132.951 9.76486 132.891 9.77273 132.832 9.76835" fill="#F07E33"/>
<path d="M136.668 9.90566C136.615 9.85441 136.556 9.80849 136.494 9.76855C136.42 9.72033 136.336 9.68706 136.249 9.6706C135.659 9.57264 135.147 9.83463 135.147 10.3637C135.147 10.787 135.51 10.993 135.794 11.0983L136.396 11.3432C136.982 11.5708 137.8 12.019 137.824 13.0769C137.824 13.363 137.762 13.6456 137.642 13.9055C137.523 14.1653 137.348 14.3962 137.131 14.5822C136.914 14.7683 136.659 14.9052 136.384 14.9835C136.108 15.0619 135.82 15.0798 135.537 15.036C135.115 14.9821 134.729 14.7736 134.452 14.4507C134.318 14.2969 134.207 14.1245 134.121 13.9389C134.082 13.8614 134.061 13.7756 134.061 13.6885C134.06 13.6014 134.081 13.5155 134.12 13.4378C134.16 13.3602 134.217 13.293 134.287 13.2417C134.358 13.1905 134.439 13.1566 134.526 13.143H134.584C134.634 13.1329 134.687 13.1379 134.734 13.1574C134.781 13.177 134.821 13.2102 134.85 13.2529C134.869 13.2812 134.882 13.3129 134.888 13.3462C134.927 13.5282 135.004 13.6999 135.113 13.8507C135.201 13.9707 135.319 14.066 135.454 14.1273C135.59 14.1887 135.739 14.214 135.887 14.2009C136.021 14.2094 136.156 14.1894 136.282 14.142C136.408 14.0946 136.522 14.0211 136.618 13.9261C136.713 13.8312 136.787 13.7171 136.835 13.5914C136.883 13.4657 136.904 13.3312 136.896 13.1969C136.896 12.5945 136.406 12.3349 136.027 12.1733L135.449 11.9284C134.839 11.6615 134.224 11.2476 134.224 10.4053C134.224 9.42577 135.05 8.80608 135.987 8.80608C136.427 8.78167 136.859 8.92926 137.192 9.21764C137.285 9.27516 137.365 9.35116 137.427 9.44089C137.489 9.53062 137.531 9.63215 137.552 9.73915C137.556 9.77257 137.55 9.80638 137.534 9.83611C137.518 9.86585 137.494 9.8901 137.464 9.90566L137.339 9.98115C137.232 10.0389 137.109 10.0624 136.988 10.0484C136.867 10.0344 136.752 9.98361 136.661 9.90284" fill="#F07E33"/>
<path d="M140.988 9.90566C140.934 9.85439 140.876 9.80847 140.814 9.76855C140.739 9.72033 140.656 9.68707 140.569 9.6706C139.979 9.57265 139.47 9.83464 139.47 10.3637C139.47 10.787 139.829 10.993 140.114 11.0983L140.716 11.3432C141.301 11.5709 142.119 12.019 142.144 13.0769C142.143 13.363 142.081 13.6456 141.962 13.9055C141.842 14.1653 141.668 14.3962 141.45 14.5822C141.233 14.7683 140.978 14.9052 140.703 14.9835C140.428 15.0619 140.139 15.0798 139.856 15.036C139.43 14.9819 139.039 14.7695 138.762 14.4409C138.628 14.287 138.516 14.1147 138.431 13.9291C138.393 13.852 138.374 13.7672 138.375 13.6813C138.376 13.5955 138.397 13.511 138.436 13.4346C138.475 13.3582 138.532 13.2921 138.601 13.2415C138.67 13.1909 138.751 13.1571 138.835 13.143H138.894C138.927 13.1363 138.962 13.1362 138.995 13.1428C139.028 13.1493 139.06 13.1625 139.088 13.1813C139.116 13.2002 139.141 13.2245 139.159 13.2528C139.178 13.2811 139.191 13.3129 139.198 13.3462C139.237 13.5287 139.314 13.7007 139.425 13.8507C139.513 13.9711 139.63 14.0667 139.766 14.1281C139.902 14.1895 140.051 14.2145 140.199 14.2009C140.333 14.209 140.468 14.1887 140.593 14.1412C140.719 14.0936 140.833 14.02 140.928 13.9251C141.023 13.8303 141.097 13.7163 141.145 13.5908C141.193 13.4652 141.214 13.331 141.206 13.1969C141.206 12.5945 140.716 12.335 140.336 12.1733L139.761 11.9284C139.149 11.6615 138.537 11.2476 138.537 10.4053C138.537 9.42578 139.362 8.80608 140.3 8.80608C140.739 8.78165 141.171 8.92924 141.504 9.21764C141.597 9.27519 141.677 9.35119 141.739 9.44091C141.801 9.53064 141.843 9.63216 141.864 9.73916C141.874 9.77259 141.874 9.80829 141.862 9.84124C141.851 9.87418 141.829 9.90271 141.801 9.92283L141.676 9.99879C141.568 10.0566 141.446 10.0801 141.324 10.0661C141.203 10.052 141.089 10.0012 140.998 9.92036" fill="#F07E33"/>
<path d="M57.7073 9.72278C57.8862 9.72506 58.0601 9.6638 58.1982 9.54989C58.264 9.50067 58.3175 9.43673 58.3543 9.36318C58.391 9.28963 58.4101 9.2085 58.41 9.12627H58.9136L58.9197 9.14351C58.9294 9.41035 58.8112 9.64681 58.5651 9.85287C58.3263 10.057 58.0214 10.1671 57.7073 10.1625C57.2592 10.1625 56.9171 10.0161 56.681 9.72334C56.4449 9.43055 56.3269 9.06216 56.3269 8.61815V8.49807C56.3269 8.05815 56.4453 7.69142 56.6821 7.39789C56.919 7.10436 57.2607 6.95778 57.7073 6.95816C57.9356 6.95411 58.1624 6.99569 58.3744 7.08046C58.5582 7.15503 58.7228 7.2702 58.8558 7.41735V8.10225H58.405V7.65195C58.405 7.65195 58.177 7.36899 57.7062 7.40012C57.4121 7.41957 57.2014 7.5063 57.0757 7.71866C56.9432 7.95613 56.8777 8.22515 56.8862 8.49696V8.61704C56.8862 8.93281 56.9488 9.19576 57.0741 9.4059C57.1993 9.61604 57.4104 9.72167 57.7073 9.72278Z" fill="black"/>
<path d="M61.0898 7.04822V7.48295H60.6334V9.19854L60.6506 9.2041L61.9849 7.04822H62.9922V7.48295H62.5358V9.65107H62.9922V10.083H61.5296V9.65107H61.986V7.93492L61.9693 7.92936L60.6351 10.0852H59.6283V9.65329H60.0847V7.48518H59.6283V7.05044H61.0898V7.04822Z" fill="black"/>
<path d="M63.7188 7.48295V7.04822H65.1825V7.48295H64.7261V8.36187H66.0731V7.48295H65.6167V7.04822H67.0832V7.48295H66.6268V9.65107H67.0832V10.083H65.6167V9.65107H66.0731V8.79272H64.7261V9.65218H65.1825V10.0841H63.7188V9.65218H64.1746V7.48407L63.7188 7.48295Z" fill="black"/>
<path d="M67.7484 9.65329H68.0731L68.9681 8.54978L68.1092 7.48295H67.7784V7.04822H69.0015V7.48295H68.7235L69.2539 8.16786L69.7853 7.48295H69.5074V7.04822H70.7471V7.48295H70.4224L69.5574 8.54978L70.4469 9.65329H70.7743V10.0852H69.5452V9.65329H69.8192L69.2633 8.93726L68.7074 9.65329H68.9792V10.0852H67.7484V9.65329Z" fill="black"/>
<path d="M73.8227 8.62265C73.8227 8.27686 73.7554 7.99334 73.6209 7.77208C73.5614 7.66681 73.474 7.57999 73.3684 7.52114C73.2628 7.46229 73.143 7.43371 73.0221 7.43852C72.8802 7.43436 72.7402 7.47164 72.6191 7.54582C72.505 7.61829 72.4115 7.71877 72.3473 7.83768V9.317C72.4104 9.4413 72.5081 9.5447 72.6286 9.61474C72.7491 9.68477 72.8874 9.71845 73.0266 9.71171C73.2879 9.71171 73.4856 9.61628 73.6198 9.42541C73.7539 9.23454 73.8216 8.98659 73.8227 8.68158V8.62265ZM71.3394 10.8152H71.7958V7.483H71.3394V7.04826H72.2689L72.3195 7.41851C72.4149 7.28471 72.5411 7.17584 72.6875 7.10107C72.8432 7.0252 73.0146 6.98711 73.1878 6.98989C73.5625 6.98989 73.854 7.13814 74.0623 7.43463C74.2702 7.73261 74.3747 8.12787 74.3747 8.61764V8.68158C74.3747 9.11928 74.2702 9.47247 74.0612 9.74117C73.8521 10.0099 73.5638 10.144 73.1962 10.1437C73.0276 10.1472 72.8602 10.1154 72.7047 10.0503C72.5642 9.98787 72.4408 9.89253 72.345 9.77231V10.8163H72.8042V11.2544H71.3394V10.8152Z" fill="black"/>
<path d="M75.5982 8.60033C75.5982 8.9224 75.6659 9.18813 75.8011 9.39753C75.9364 9.60693 76.1375 9.71163 76.4043 9.71163C76.5227 9.71696 76.6403 9.69067 76.7452 9.63547C76.85 9.58027 76.9383 9.49814 77.0008 9.39753C77.1369 9.18813 77.205 8.9224 77.2054 8.60033V8.53862C77.2054 8.22063 77.1372 7.95582 77.0008 7.7442C76.9383 7.6422 76.8494 7.55892 76.7436 7.50307C76.6377 7.44722 76.5188 7.42087 76.3993 7.42677C76.134 7.42677 75.9342 7.53258 75.8 7.7442C75.6659 7.95582 75.5986 8.22063 75.5982 8.53862V8.60033ZM75.0468 8.53862C75.0468 8.08943 75.1681 7.71881 75.4109 7.42677C75.6536 7.13472 75.9831 6.98925 76.3993 6.99036C76.8166 6.99036 77.1474 7.13527 77.3917 7.4251C77.6359 7.71492 77.7576 8.08554 77.7569 8.53695V8.59866C77.7569 9.05156 77.6355 9.42217 77.3928 9.71051C77.15 9.99886 76.8205 10.143 76.4043 10.143C75.9844 10.143 75.6533 9.99849 75.4109 9.7094C75.1685 9.42032 75.0471 9.0497 75.0468 8.59755V8.53862Z" fill="black"/>
<path d="M56.3224 13.0478V12.6125H57.7861V13.0478H57.3303V13.9268H58.6767V13.0478H58.2203V12.6125H59.6874V13.0478H59.231V15.216H59.6874V15.6479H58.2203V15.216H58.6767V14.3587H57.3303V15.2182H57.7861V15.6501H56.3224V15.2182H56.7782V13.0501L56.3224 13.0478Z" fill="black"/>
<path d="M61.8523 12.6125V13.0478H61.3954V14.7634L61.4121 14.769L62.7463 12.6125H63.7542V13.0478H63.2978V15.216H63.7542V15.6479H62.291V15.216H62.7474V13.4998L62.7307 13.4942L61.3965 15.6501H60.3903V15.2182H60.8467V13.0501H60.3903V12.6148H61.8523V12.6125Z" fill="black"/>
<path d="M65.6804 13.8761C65.875 13.8761 66.0136 13.839 66.0963 13.7649C66.1393 13.7237 66.1728 13.6736 66.1943 13.6181C66.2159 13.5626 66.2249 13.503 66.2208 13.4436C66.2217 13.3826 66.2095 13.3223 66.1849 13.2665C66.1603 13.2108 66.124 13.161 66.0785 13.1206C65.9829 13.0327 65.8383 12.9988 65.6443 12.9888C65.3013 12.9716 64.9772 13.2051 64.9772 13.2051V13.6848H64.538V13.0083C64.6264 12.9258 64.7192 12.8483 64.816 12.7759C64.9939 12.6514 65.338 12.5329 65.6665 12.5329C65.9566 12.524 66.2409 12.6153 66.4715 12.7914C66.6717 12.9432 66.7712 13.1611 66.7712 13.4436C66.7718 13.579 66.7287 13.711 66.6483 13.8199C66.5598 13.939 66.441 14.0321 66.3042 14.0895C66.4579 14.1378 66.5935 14.2311 66.6933 14.3575C66.7854 14.484 66.8327 14.6375 66.8279 14.7939C66.8327 14.9234 66.8055 15.0521 66.7485 15.1685C66.6916 15.2849 66.6067 15.3854 66.5016 15.461C66.284 15.6222 65.9971 15.7027 65.641 15.7023C65.3411 15.7102 65.0459 15.6271 64.7943 15.4638C64.5586 15.3033 64.4454 15.0717 64.4546 14.7689L64.4602 14.7522H64.9833C64.9841 14.8239 65.0012 14.8945 65.0333 14.9586C65.0654 15.0228 65.1116 15.0788 65.1684 15.1225C65.3027 15.2309 65.4718 15.2868 65.6443 15.2798C65.8441 15.2798 65.999 15.2335 66.1091 15.1408C66.1616 15.0997 66.204 15.047 66.2329 14.9868C66.2619 14.9267 66.2765 14.8606 66.2758 14.7939C66.2758 14.631 66.2275 14.512 66.1319 14.4376C66.0362 14.3631 65.8856 14.3264 65.6821 14.3264H65.2991V13.8772L65.6804 13.8761Z" fill="black"/>
<path d="M68.5979 15.2653C68.7735 15.2672 68.9464 15.2215 69.0982 15.133C69.2343 15.0603 69.3469 14.9504 69.4229 14.8162V14.3158H68.8358C68.6101 14.3158 68.4315 14.3683 68.2999 14.4732C68.2391 14.5166 68.1895 14.5739 68.1552 14.6403C68.1209 14.7067 68.1029 14.7803 68.1026 14.8551C68.0988 14.9118 68.1079 14.9687 68.1292 15.0214C68.1504 15.0742 68.1833 15.1215 68.2254 15.1597C68.3077 15.2301 68.4319 15.2653 68.5979 15.2653ZM69.4874 15.6695C69.4707 15.5872 69.4579 15.5133 69.4485 15.4471C69.439 15.381 69.4323 15.3165 69.4284 15.2503C69.3196 15.3895 69.1841 15.5055 69.0298 15.5917C68.8745 15.6811 68.6983 15.7281 68.5189 15.7279C68.2032 15.7279 67.963 15.6512 67.7996 15.4961C67.6361 15.341 67.5533 15.1241 67.5533 14.844C67.5482 14.7121 67.5776 14.5812 67.6387 14.4641C67.6997 14.3471 67.7902 14.2481 67.9013 14.1768C68.1341 14.0204 68.4528 13.9422 68.8575 13.9422H69.4257V13.5887C69.4296 13.5104 69.4167 13.4323 69.3879 13.3594C69.3592 13.2865 69.3152 13.2206 69.2589 13.1662C69.1477 13.0628 68.9909 13.0105 68.7914 13.0105C68.6674 13.0091 68.544 13.0279 68.4261 13.0661C68.3205 13.1017 68.1765 13.1506 68.1109 13.2123V13.6048H67.6856V12.941C67.8356 12.824 68.0049 12.7343 68.1859 12.6758C68.3917 12.6075 68.6074 12.5737 68.8242 12.5758C69.167 12.5758 69.4449 12.6638 69.658 12.8398C69.8711 13.0159 69.9775 13.2675 69.9771 13.5948V15.0574C69.9771 15.0967 69.9771 15.1351 69.9771 15.1725C69.978 15.1943 69.9802 15.216 69.9838 15.2376H70.3757V15.6701L69.4874 15.6695Z" fill="black"/>
<path d="M74.3238 12.637V13.0734H73.8674V12.6381L74.3238 12.637ZM73.8674 12.637V15.2415H74.2398V16.5757H73.6934V15.6751H70.9582V15.2415H71.4141V13.0734H70.9576V12.6381H72.422V13.0734H71.9655V15.2415H73.3148V13.0734H72.8595V12.6381H73.8674V12.637Z" fill="black"/>
<path d="M76.4489 12.6287V13.064H75.993V14.779L76.0097 14.7851L77.3439 12.6287H78.3518V13.064H77.8954V15.2321H78.3518V15.664H76.8886V15.2321H77.345V13.5181L77.3284 13.5126L75.9941 15.6685H74.9879V15.2365H75.4438V13.0684H74.9879V12.6287H76.4489Z" fill="black"/>
<path d="M79.7458 13.566C79.7447 13.6298 79.7564 13.6933 79.7802 13.7526C79.804 13.8118 79.8393 13.8658 79.8843 13.9112C79.9765 14.0068 80.1138 14.0541 80.2973 14.0541H81.0812V13.0606H80.3529C80.1535 13.0606 80.0023 13.1107 79.8993 13.2107C79.8504 13.2561 79.8116 13.311 79.7852 13.3722C79.7588 13.4334 79.7454 13.4993 79.7458 13.566ZM80.6247 15.2365H81.0812V14.4894H80.3334L79.6169 15.6685H78.8752V15.2365H79.2727L79.7903 14.4082C79.6123 14.3506 79.4577 14.2368 79.3498 14.084C79.2418 13.9311 79.1863 13.7474 79.1916 13.5604C79.1889 13.4328 79.2155 13.3064 79.2694 13.1907C79.3232 13.075 79.4029 12.9733 79.5023 12.8933C79.7091 12.7202 79.9927 12.6337 80.3529 12.6337H82.0885V13.069H81.6326V15.2371H82.0885V15.669H80.6247V15.2365Z" fill="black"/>
<path d="M85.5346 3.93948H56.2928V0.231445H85.5346V3.93948Z" fill="black"/>
<path d="M154.756 9.72278C154.935 9.72506 155.109 9.6638 155.247 9.54989C155.313 9.50067 155.366 9.43673 155.403 9.36318C155.44 9.28963 155.459 9.2085 155.459 9.12627H155.962L155.968 9.14351C155.978 9.41035 155.86 9.64681 155.614 9.85287C155.375 10.057 155.07 10.1671 154.756 10.1625C154.308 10.1625 153.966 10.0161 153.73 9.72334C153.494 9.43055 153.376 9.06216 153.376 8.61815V8.49807C153.376 8.05815 153.494 7.69142 153.731 7.39789C153.968 7.10436 154.309 6.95778 154.756 6.95816C154.984 6.95411 155.211 6.99569 155.423 7.08046C155.607 7.15503 155.771 7.2702 155.905 7.41735V8.10225H155.454V7.65195C155.454 7.65195 155.226 7.36899 154.755 7.40012C154.461 7.41957 154.25 7.5063 154.124 7.71866C153.992 7.95613 153.926 8.22515 153.935 8.49696V8.61704C153.935 8.93281 153.998 9.19576 154.123 9.4059C154.248 9.61604 154.459 9.72167 154.756 9.72278Z" fill="black"/>
<path d="M158.139 7.04822V7.48295H157.682V9.19854L157.699 9.2041L159.034 7.04822H160.041V7.48295H159.585V9.65107H160.041V10.083H158.578V9.65107H159.035V7.93492L159.018 7.92936L157.684 10.0852H156.677V9.65329H157.133V7.48518H156.677V7.05044H158.139V7.04822Z" fill="black"/>
<path d="M160.767 7.48295V7.04822H162.231V7.48295H161.775V8.36187H163.122V7.48295H162.665V7.04822H164.132V7.48295H163.676V9.65107H164.132V10.083H162.665V9.65107H163.122V8.79272H161.775V9.65218H162.231V10.0841H160.767V9.65218H161.223V7.48407L160.767 7.48295Z" fill="black"/>
<path d="M164.797 9.65329H165.122L166.017 8.54978L165.158 7.48295H164.827V7.04822H166.05V7.48295H165.772L166.303 8.16786L166.834 7.48295H166.556V7.04822H167.796V7.48295H167.471L166.606 8.54978L167.496 9.65329H167.823V10.0852H166.594V9.65329H166.868L166.312 8.93726L165.756 9.65329H166.028V10.0852H164.797V9.65329Z" fill="black"/>
<path d="M170.871 8.62265C170.871 8.27686 170.804 7.99334 170.67 7.77208C170.61 7.66681 170.523 7.57999 170.417 7.52114C170.311 7.46229 170.192 7.43371 170.071 7.43852C169.929 7.43436 169.789 7.47164 169.668 7.54582C169.554 7.61829 169.46 7.71877 169.396 7.83768V9.317C169.459 9.4413 169.557 9.5447 169.677 9.61474C169.798 9.68477 169.936 9.71845 170.075 9.71171C170.337 9.71171 170.534 9.61628 170.668 9.42541C170.803 9.23454 170.87 8.98659 170.871 8.68158V8.62265ZM168.388 10.8152H168.844V7.483H168.388V7.04826H169.318L169.368 7.41851C169.464 7.28471 169.59 7.17584 169.736 7.10107C169.892 7.0252 170.063 6.98711 170.237 6.98989C170.611 6.98989 170.903 7.13814 171.111 7.43463C171.319 7.73261 171.423 8.12787 171.423 8.61764V8.68158C171.423 9.11928 171.319 9.47247 171.11 9.74117C170.901 10.0099 170.613 10.144 170.245 10.1437C170.076 10.1472 169.909 10.1154 169.753 10.0503C169.613 9.98787 169.49 9.89253 169.394 9.77231V10.8163H169.853V11.2544H168.388V10.8152Z" fill="black"/>
<path d="M172.647 8.60033C172.647 8.9224 172.715 9.18813 172.85 9.39753C172.985 9.60693 173.186 9.71163 173.453 9.71163C173.571 9.71696 173.689 9.69067 173.794 9.63547C173.899 9.58027 173.987 9.49814 174.05 9.39753C174.186 9.18813 174.254 8.9224 174.254 8.60033V8.53862C174.254 8.22063 174.186 7.95582 174.05 7.7442C173.987 7.6422 173.898 7.55892 173.792 7.50307C173.686 7.44722 173.568 7.42087 173.448 7.42677C173.183 7.42677 172.983 7.53258 172.849 7.7442C172.715 7.95582 172.647 8.22063 172.647 8.53862V8.60033ZM172.095 8.53862C172.095 8.08943 172.217 7.71881 172.46 7.42677C172.702 7.13472 173.032 6.98925 173.448 6.99036C173.865 6.99036 174.196 7.13527 174.44 7.4251C174.685 7.71492 174.806 8.08554 174.806 8.53695V8.59866C174.806 9.05156 174.684 9.42217 174.441 9.71051C174.199 9.99886 173.869 10.143 173.453 10.143C173.033 10.143 172.702 9.99849 172.46 9.7094C172.217 9.42032 172.096 9.0497 172.095 8.59755V8.53862Z" fill="black"/>
<path d="M153.371 13.0478V12.6125H154.835V13.0478H154.379V13.9268H155.725V13.0478H155.269V12.6125H156.736V13.0478H156.28V15.216H156.736V15.6479H155.269V15.216H155.725V14.3587H154.379V15.2182H154.835V15.6501H153.371V15.2182H153.827V13.0501L153.371 13.0478Z" fill="black"/>
<path d="M158.901 12.6125V13.0478H158.444V14.7634L158.461 14.769L159.795 12.6125H160.803V13.0478H160.346V15.216H160.803V15.6479H159.34V15.216H159.796V13.4998L159.779 13.4942L158.445 15.6501H157.439V15.2182H157.895V13.0501H157.439V12.6148H158.901V12.6125Z" fill="black"/>
<path d="M162.729 13.8761C162.924 13.8761 163.062 13.839 163.145 13.7649C163.188 13.7237 163.222 13.6736 163.243 13.6181C163.265 13.5626 163.274 13.503 163.27 13.4436C163.27 13.3826 163.258 13.3223 163.234 13.2665C163.209 13.2108 163.173 13.161 163.127 13.1206C163.032 13.0327 162.887 12.9988 162.693 12.9888C162.35 12.9716 162.026 13.2051 162.026 13.2051V13.6848H161.587V13.0083C161.675 12.9258 161.768 12.8483 161.865 12.7759C162.043 12.6514 162.387 12.5329 162.715 12.5329C163.005 12.524 163.29 12.6153 163.52 12.7914C163.72 12.9432 163.82 13.1611 163.82 13.4436C163.821 13.579 163.777 13.711 163.697 13.8199C163.609 13.939 163.49 14.0321 163.353 14.0895C163.507 14.1378 163.642 14.2311 163.742 14.3575C163.834 14.484 163.881 14.6375 163.877 14.7939C163.881 14.9234 163.854 15.0521 163.797 15.1685C163.74 15.2849 163.655 15.3854 163.55 15.461C163.333 15.6222 163.046 15.7027 162.69 15.7023C162.39 15.7102 162.095 15.6271 161.843 15.4638C161.607 15.3033 161.494 15.0717 161.503 14.7689L161.509 14.7522H162.032C162.033 14.8239 162.05 14.8945 162.082 14.9586C162.114 15.0228 162.16 15.0788 162.217 15.1225C162.351 15.2309 162.521 15.2868 162.693 15.2798C162.893 15.2798 163.048 15.2335 163.158 15.1408C163.21 15.0997 163.253 15.047 163.282 14.9868C163.311 14.9267 163.325 14.8606 163.325 14.7939C163.325 14.631 163.276 14.512 163.181 14.4376C163.085 14.3631 162.934 14.3264 162.731 14.3264H162.348V13.8772L162.729 13.8761Z" fill="black"/>
<path d="M165.647 15.2653C165.822 15.2672 165.995 15.2215 166.147 15.133C166.283 15.0603 166.396 14.9504 166.472 14.8162V14.3158H165.885C165.659 14.3158 165.48 14.3683 165.349 14.4732C165.288 14.5166 165.238 14.5739 165.204 14.6403C165.17 14.7067 165.152 14.7803 165.151 14.8551C165.148 14.9118 165.157 14.9687 165.178 15.0214C165.199 15.0742 165.232 15.1215 165.274 15.1597C165.356 15.2301 165.481 15.2653 165.647 15.2653ZM166.536 15.6695C166.519 15.5872 166.507 15.5133 166.497 15.4471C166.488 15.381 166.481 15.3165 166.477 15.2503C166.368 15.3895 166.233 15.5055 166.079 15.5917C165.923 15.6811 165.747 15.7281 165.568 15.7279C165.252 15.7279 165.012 15.6512 164.848 15.4961C164.685 15.341 164.602 15.1241 164.602 14.844C164.597 14.7121 164.626 14.5812 164.687 14.4641C164.748 14.3471 164.839 14.2481 164.95 14.1768C165.183 14.0204 165.501 13.9422 165.906 13.9422H166.474V13.5887C166.478 13.5104 166.465 13.4323 166.437 13.3594C166.408 13.2865 166.364 13.2206 166.308 13.1662C166.196 13.0628 166.04 13.0105 165.84 13.0105C165.716 13.0091 165.593 13.0279 165.475 13.0661C165.369 13.1017 165.225 13.1506 165.16 13.2123V13.6048H164.734V12.941C164.884 12.824 165.054 12.7343 165.235 12.6758C165.44 12.6075 165.656 12.5737 165.873 12.5758C166.216 12.5758 166.494 12.6638 166.707 12.8398C166.92 13.0159 167.026 13.2675 167.026 13.5948V15.0574C167.026 15.0967 167.026 15.1351 167.026 15.1725C167.027 15.1943 167.029 15.216 167.033 15.2376H167.424V15.6701L166.536 15.6695Z" fill="black"/>
<path d="M171.372 12.637V13.0734H170.916V12.6381L171.372 12.637ZM170.916 12.637V15.2415H171.289V16.5757H170.742V15.6751H168.007V15.2415H168.463V13.0734H168.006V12.6381H169.471V13.0734H169.014V15.2415H170.363V13.0734H169.908V12.6381H170.916V12.637Z" fill="black"/>
<path d="M173.497 12.6287V13.064H173.042V14.779L173.058 14.7851L174.393 12.6287H175.4V13.064H174.944V15.2321H175.4V15.664H173.937V15.2321H174.394V13.5181L174.377 13.5126L173.043 15.6685H172.036V15.2365H172.492V13.0684H172.036V12.6287H173.497Z" fill="black"/>
<path d="M176.795 13.566C176.793 13.6298 176.805 13.6933 176.829 13.7526C176.853 13.8118 176.888 13.8658 176.933 13.9112C177.025 14.0068 177.163 14.0541 177.346 14.0541H178.13V13.0606H177.402C177.202 13.0606 177.051 13.1107 176.948 13.2107C176.899 13.2561 176.86 13.311 176.834 13.3722C176.807 13.4334 176.794 13.4993 176.795 13.566ZM177.673 15.2365H178.13V14.4894H177.382L176.666 15.6685H175.924V15.2365H176.321L176.839 14.4082C176.661 14.3506 176.506 14.2368 176.398 14.084C176.291 13.9311 176.235 13.7474 176.24 13.5604C176.238 13.4328 176.264 13.3064 176.318 13.1907C176.372 13.075 176.452 12.9733 176.551 12.8933C176.758 12.7202 177.041 12.6337 177.402 12.6337H179.137V13.069H178.681V15.2371H179.137V15.669H177.673V15.2365Z" fill="black"/>
<path d="M182.583 3.93948H153.342V0.231445H182.583V3.93948Z" fill="black"/>
</svg>
