<svg width="158" height="52" viewBox="0 0 158 52" fill="none" xmlns="http://www.w3.org/2000/svg">
<mask id="mask0_87_139" style="mask-type:luminance" maskUnits="userSpaceOnUse" x="0" y="0" width="52" height="52">
<path d="M51.3423 0H0V51.3423H51.3423V0Z" fill="white"/>
</mask>
<g mask="url(#mask0_87_139)">
<path d="M51.3397 0H0V51.3397H51.3397V0Z" fill="#FF0033"/>
<path d="M15.6194 3.94849L11.839 11.7839L8.06634 3.94849H3.95276V15.7957H6.84015V7.31669L10.5289 14.4805H13.1619L16.8532 7.31669V15.7957H19.7406V3.94849H15.6194Z" fill="white"/>
<path d="M34.2039 3.94849V6.30674H39.363V15.7932H42.2402V6.30674H47.4019V3.94849H34.2039Z" fill="white"/>
<path d="M44.5173 43.4401C44.4642 43.8769 44.2652 44.2829 43.9525 44.5925C43.6263 44.8896 43.2252 45.0919 42.7925 45.1776C42.1633 45.3008 41.523 45.3579 40.882 45.3481C40.199 45.3594 39.5187 45.2606 38.8671 45.0555C38.3346 44.8819 37.8752 44.5354 37.5621 44.071C37.2492 43.6055 37.0915 42.9313 37.0915 42.0689V40.858C37.0915 39.9956 37.2492 39.3316 37.5621 38.8584C37.8742 38.394 38.3327 38.0475 38.8646 37.8739C39.5156 37.6661 40.1962 37.5664 40.8794 37.5788C41.5214 37.5682 42.1628 37.6262 42.7925 37.7518C43.2241 37.8373 43.6242 38.0386 43.95 38.3344C44.2624 38.6454 44.4621 39.0519 44.5173 39.4893H47.4072C47.3527 38.5779 47.0047 37.7087 46.4151 37.0115C45.8334 36.3713 45.0803 35.9113 44.2451 35.6861C43.1472 35.3969 42.0145 35.2617 40.8794 35.2842C39.6655 35.2563 38.4573 35.4574 37.3179 35.8769C36.3455 36.2516 35.5311 36.9484 35.0105 37.851C34.5017 38.7261 34.232 39.8862 34.2142 41.3261V41.6008C34.232 43.0331 34.5017 44.1982 35.0105 45.0733C35.531 45.9767 36.3454 46.6743 37.3179 47.05C38.4576 47.4683 39.6656 47.6693 40.8794 47.6427C42.0149 47.6702 43.1484 47.534 44.2451 47.2382C45.0811 47.015 45.8347 46.5547 46.4151 45.9128C47.0051 45.217 47.3533 44.3483 47.4072 43.4376H44.5173V43.4401Z" fill="white"/>
</g>
<path d="M63.6085 19.9324C64.096 19.9573 64.5793 19.8312 64.9925 19.5712C65.3739 19.2812 65.6522 18.8763 65.7862 18.4162C65.9987 17.7447 66.1244 17.0488 66.1601 16.3454C66.2246 15.4974 66.2568 14.4705 66.2568 13.2647V6.28406H80.7014V22.8936H77.3307V9.01882H69.3859V13.2545C69.4003 14.7584 69.3281 16.2618 69.1696 17.7573C69.0772 18.7859 68.8087 19.791 68.3759 20.7287C68.0378 21.4431 67.4699 22.0235 66.7631 22.3772C65.9215 22.7458 65.0075 22.9197 64.0894 22.886H63.1023V19.9324H63.6085Z" fill="#FF0033"/>
<path d="M98.7077 6.28406V8.90688H87.8272V13.1451H96.2044V15.6713H87.8272V20.2708H98.8018V22.8936H84.4564V6.28406H98.7077Z" fill="#FF0033"/>
<path d="M100.452 9.01882V6.28406H117.413V9.01882H110.623V22.8834H107.237V9.01882H100.452Z" fill="#FF0033"/>
<path d="M118.026 14.5168C117.989 13.1607 118.206 11.8096 118.665 10.5329C119.05 9.50553 119.697 8.59685 120.542 7.89738C121.446 7.18547 122.5 6.68715 123.623 6.43969C126.424 5.84611 129.319 5.84611 132.12 6.43969C133.244 6.68745 134.298 7.18573 135.203 7.89738C136.047 8.59822 136.694 9.50647 137.081 10.5329C137.538 11.8101 137.753 13.1609 137.717 14.5168C137.754 15.8968 137.539 17.272 137.081 18.5744C136.697 19.6122 136.05 20.5326 135.203 21.2456C134.3 21.9647 133.246 22.4707 132.12 22.7262C129.321 23.3367 126.423 23.3367 123.623 22.7262C122.498 22.4707 121.445 21.9646 120.542 21.2456C119.695 20.5337 119.048 19.613 118.665 18.5744C118.205 17.2725 117.989 15.897 118.026 14.5168ZM134.323 13.6976C134.323 11.8694 133.781 10.566 132.697 9.78755C131.614 9.00909 130.003 8.61987 127.864 8.61987C125.715 8.61987 124.104 9.00909 123.03 9.78755C121.957 10.566 121.419 11.8694 121.418 13.6976V15.4072C121.396 16.2157 121.531 17.0207 121.814 17.7781C122.063 18.4078 122.479 18.9575 123.018 19.3681C123.625 19.8082 124.319 20.1159 125.053 20.2712C125.982 20.4749 126.931 20.5714 127.882 20.5587C130.017 20.5587 131.628 20.1661 132.715 19.3808C133.802 18.5956 134.344 17.271 134.341 15.4072L134.323 13.6976Z" fill="#FF0033"/>
<path d="M73.7476 27.5127C75.352 27.5127 76.5841 27.8451 77.444 28.5099C78.3038 29.1747 78.7329 30.1923 78.7312 31.5627C78.7465 32.3909 78.5344 33.2074 78.1181 33.9235C77.7094 34.6137 77.0149 35.1115 76.0346 35.4168C77.1251 35.6881 77.9281 36.1571 78.4437 36.8236C78.9767 37.5618 79.2455 38.4579 79.2069 39.3676C79.2069 40.9245 78.7702 42.1116 77.8968 42.9291C77.0233 43.7466 75.7132 44.1451 73.9664 44.1248H63.325V27.5127H73.7476ZM75.3121 31.7738C75.3121 30.4561 74.5023 29.798 72.8826 29.7997H66.6474V34.5417H72.8953C73.7111 34.5417 74.3208 34.3526 74.7245 33.9744C74.9332 33.7614 75.0946 33.5067 75.1981 33.227C75.3016 32.9473 75.3447 32.6489 75.3248 32.3513L75.3121 31.7738ZM75.8209 38.874C75.8365 38.5771 75.7838 38.2805 75.667 38.0071C75.5501 37.7337 75.3721 37.4907 75.1467 37.2968C74.699 36.9203 74.0147 36.732 73.1116 36.732H66.6474V41.8352H73.0989C74.9119 41.8352 75.8184 41.0966 75.8184 39.6194L75.8209 38.874Z" fill="#FF0033"/>
<path d="M104.272 27.5127L96.554 35.5033L104.73 44.1248H100.406L93.5928 37.022H91.2346V44.1248H87.8536V27.5127H91.2244V34.2771H93.7048L100.276 27.5127H104.272Z" fill="#FF0033"/>
<path d="M108.51 27.5136L114.335 36.733L119.703 27.5136H123.01L113.343 44.1257H110.036L112.58 39.7196L104.806 27.5085L108.51 27.5136Z" fill="#FF0033"/>
<path d="M139.777 27.5127V30.1126H128.271V34.1092H135.445C137.337 34.1092 138.721 34.5383 139.596 35.3964C140.471 36.2546 140.909 37.4698 140.909 39.0419C140.909 40.6328 140.468 41.8768 139.586 42.7739C138.704 43.6711 137.324 44.1205 135.445 44.1222H124.948V27.5127H139.777ZM137.487 38.7545C137.501 38.4539 137.451 38.1539 137.341 37.8738C137.231 37.5938 137.063 37.34 136.849 37.1289C136.423 36.7201 135.713 36.5158 134.72 36.5158H128.268V41.6419H134.712C135.691 41.6419 136.396 41.4434 136.831 41.0415C137.048 40.8347 137.219 40.5837 137.331 40.3055C137.442 40.0272 137.493 39.7282 137.48 39.4286L137.487 38.7545Z" fill="#FF0033"/>
<path d="M157.903 27.5127V30.133H147.023V34.3712H155.4V36.8974H147.023V41.4969H158V44.1248H143.655V27.5127H157.903Z" fill="#FF0033"/>
</svg>
