<svg width="120" height="39" viewBox="0 0 120 39" fill="none" xmlns="http://www.w3.org/2000/svg">
<path d="M12.8291 0H16.9563L8.97542 8.34381L17.4287 17.341H12.9534L5.91731 9.92712H3.48077V17.341H0V0H3.48077V7.06208H6.04163L12.8291 0Z" fill="white"/>
<path d="M17.5119 0H21.3407L27.3575 9.62554L32.9018 0H36.308L26.3381 17.341H22.9071L25.5425 12.7419L17.5119 0Z" fill="white"/>
<path d="M38.3137 0H53.6291V2.71425H41.7448V6.88615H49.1539C53.0324 6.88615 54.7977 8.77105 54.7977 12.0382C54.7977 15.3556 53.0324 17.341 49.1539 17.341H38.3137V0ZM51.2672 12.4403V11.7366C51.2672 10.3544 50.4467 9.39935 48.408 9.39935H41.7448V14.7525H48.408C50.4219 14.7525 51.2672 13.8477 51.2672 12.4403Z" fill="white"/>
<path d="M0 21.1124H16.7863V38.5408H13.2996V23.9919H3.48678V38.5408H0V21.1124Z" fill="white"/>
<path d="M20.6736 21.1124H31.5075C35.5173 21.1124 37.3354 23.2088 37.3354 26.7451C37.3354 30.3318 35.5173 32.4282 31.5075 32.4282H24.1603V38.5408H20.6736V21.1124ZM33.8237 27.1492V26.4167C33.8237 24.9264 33.0018 23.8656 31.0343 23.8656H24.1603V29.6751H31.0343C33.0018 29.6751 33.8237 28.6647 33.8237 27.1492Z" fill="white"/>
<path d="M54.0805 25.4569L43.7945 38.5408H40.0337V21.1124H43.5205V34.1964L53.8065 21.1124H57.5423V38.5408H54.0805V25.4569Z" fill="white"/>
<path d="M60.4158 33.5396H63.9275C64.2513 35.5098 66.1441 36.1918 69.3818 36.1918C72.8437 36.1918 74.3878 35.4088 74.3878 33.7417V33.1355C74.3878 31.6705 73.1176 30.9127 70.7516 30.9127H66.0943V28.3363H70.7516C72.7939 28.3363 73.9146 27.5533 73.9146 26.2146V25.6842C73.9146 24.0929 72.4701 23.4614 69.2822 23.4614C66.3184 23.4614 64.4505 24.0171 64.1267 25.9115H60.615C60.9637 22.249 64.1018 20.8093 69.2822 20.8093C74.9606 20.8093 77.4512 22.3753 77.4512 25.5074C77.4512 27.5281 76.181 28.9173 74.1139 29.3972C76.455 29.8519 77.8995 31.2411 77.8995 33.4386C77.8995 37.0506 75.2595 38.8439 69.3818 38.8439C64.0022 38.8439 60.7894 37.3537 60.4158 33.5396Z" fill="white"/>
<path d="M96.9585 30.6854V28.892C96.9585 25.0527 94.717 23.5625 90.2838 23.5625C85.8257 23.5625 83.6091 25.0527 83.6091 28.892V30.6854C83.6091 34.5752 85.8257 36.0908 90.2838 36.0908C94.717 36.0908 96.9585 34.6005 96.9585 30.6854ZM80.0974 29.7508C80.0974 23.1331 83.634 20.8093 90.2838 20.8093C96.9336 20.8093 100.47 23.1331 100.47 29.7508C100.47 36.4696 96.9336 38.8439 90.2838 38.8439C83.634 38.8439 80.0974 36.4696 80.0974 29.7508Z" fill="white"/>
<path d="M103.562 21.1124H114.346C117.659 21.1124 119.502 22.5269 119.502 25.3558C119.502 27.1997 118.73 28.7657 116.712 29.3972C118.954 29.9529 120 31.3926 120 33.5396C120 36.7727 118.182 38.5408 114.571 38.5408H103.562V21.1124ZM116.488 33.8175V33.0345C116.488 31.62 115.542 30.7864 113.674 30.7864H106.999V36.1413H113.674C115.517 36.1413 116.488 35.333 116.488 33.8175ZM115.965 26.1894V25.5832C115.965 24.2444 115.143 23.5119 113.45 23.5119H106.999V28.4879H113.45C115.119 28.4879 115.965 27.6544 115.965 26.1894Z" fill="white"/>
</svg>
